<svg width="356" height="356" viewBox="0 0 356 356" fill="none" xmlns="http://www.w3.org/2000/svg">
<circle cx="178" cy="178" r="176.5" fill="white" stroke="black" stroke-width="3"/>
<path d="M247.896 256.125C239.25 269.042 230.083 281.646 216.125 281.854C202.167 282.167 197.688 273.625 181.854 273.625C165.917 273.625 161.021 281.646 147.792 282.167C134.146 282.688 123.833 268.417 115.083 255.813C97.271 230.083 83.6251 182.688 101.958 150.813C111.021 134.979 127.271 124.979 144.875 124.667C158.208 124.458 170.917 133.729 179.146 133.729C187.271 133.729 202.688 122.583 218.833 124.25C225.604 124.563 244.563 126.958 256.75 144.875C255.813 145.5 234.146 158.208 234.354 184.563C234.667 216.021 261.958 226.542 262.271 226.646C261.958 227.375 257.896 241.646 247.896 256.125ZM188.417 89.4584C196.021 80.8125 208.625 74.25 219.042 73.8334C220.396 86.0209 215.5 98.3125 208.208 107.063C201.021 115.917 189.146 122.792 177.479 121.854C175.917 109.875 181.75 97.375 188.417 89.4584Z" fill="black"/>
</svg>
